<?xml version="1.0" encoding="utf-8"?>
<!-- Generator: Adobe Illustrator 22.1.0, SVG Export Plug-In . SVG Version: 6.00 Build 0)  -->
<svg version="1.1" id="svg413" xmlns:svg="http://www.w3.org/2000/svg"
	 xmlns="http://www.w3.org/2000/svg" xmlns:xlink="http://www.w3.org/1999/xlink" x="0px" y="0px" viewBox="0 0 400 100"
	 style="enable-background:new 0 0 400 100;" xml:space="preserve">
<style type="text/css">
	.st0{enable-background:new    ;}
	.st1{fill:#4170BD;}
</style>
<g id="layer1">
</g>
<g id="layer2">
	<g class="st0">
		<path class="st1" d="M143.2,60.1h3v14.6h-1.9V62.1h0l-5.1,12.6h-2L132,62.1h0v12.6h-1.9V60.1h3l5.1,12.5h0L143.2,60.1z"/>
		<path class="st1" d="M150.1,64.6c1.2-0.5,2.5-0.8,3.9-0.8c1.4,0,2.4,0.4,3.2,1.2c0.7,0.8,1.1,1.8,1.1,2.9v6.8h-1.7l-0.2-1.3h-0.1
			c-1,1-2.3,1.5-3.9,1.5c-0.9,0-1.8-0.3-2.4-0.9c-0.7-0.6-1-1.4-1-2.3s0.4-1.8,1.2-2.4c0.8-0.6,2-0.9,3.6-0.9h2.5v-0.2
			c0-0.9-0.2-1.6-0.7-2c-0.5-0.4-1.2-0.6-2.4-0.6c-1.1,0-2.2,0.2-3.1,0.7h-0.1V64.6z M156.4,71.7v-1.8h-2.3c-2.1,0-3.2,0.6-3.2,1.7
			c0,1.1,0.7,1.7,2.2,1.7c0.6,0,1.2-0.2,1.8-0.5C155.5,72.5,156,72.1,156.4,71.7z"/>
		<path class="st1" d="M167.4,63.9h0.2v1.8h-0.2c-0.8,0-1.6,0.2-2.3,0.5c-0.7,0.3-1.3,0.8-1.7,1.3v7.2h-1.9V64.1h1.7l0.2,1.3v0.3h0
			C164.4,64.5,165.7,63.9,167.4,63.9z"/>
		<path class="st1" d="M174.4,68.3l4.8,6.4h-2.3l-3.8-5H173l-1.5,1.5v3.5h-1.9V59.5h1.9v9.3h0.1l4.6-4.7h2.6L174.4,68.3z"/>
		<path class="st1" d="M190.4,69.4v0.7h-8.1c0.1,1,0.5,1.7,1.1,2.3c0.6,0.5,1.5,0.8,2.8,0.8c1.2,0,2.4-0.3,3.5-1h0.1v1.8
			c-1.2,0.7-2.5,1-4.1,1c-1.6,0-2.9-0.5-3.8-1.5c-1-1-1.4-2.3-1.4-3.9s0.4-3,1.3-4.1c0.9-1.1,2.1-1.6,3.7-1.6c1.6,0,2.9,0.5,3.7,1.6
			C189.9,66.5,190.4,67.8,190.4,69.4z M182.3,68.5h6.2c-0.1-1-0.4-1.8-1-2.3c-0.6-0.5-1.3-0.8-2.1-0.8c-0.8,0-1.5,0.3-2.1,0.8
			C182.7,66.7,182.3,67.5,182.3,68.5z"/>
		<path class="st1" d="M198.5,65.7h-3V72c0,0.6,0.2,0.9,0.5,1.1c0.3,0.1,0.6,0.2,1,0.2s0.9-0.1,1.4-0.3h0.1v1.5
			c-0.6,0.3-1.2,0.5-1.9,0.5c-2,0-3.1-0.9-3.1-2.8v-6.5h-2v-0.1l3.9-3.8v2.3h3V65.7z"/>
		<path class="st1" d="M203,59.8v2h-2v-2H203z M201,74.7V64.1h1.9v10.7H201z"/>
		<path class="st1" d="M212.1,63.9c1.2,0,2.1,0.4,2.7,1.2c0.7,0.8,1,1.8,1,2.9v6.8h-1.9v-6.6c0-1.7-0.8-2.6-2.3-2.6
			c-1.2,0-2.4,0.7-3.4,2v7.1h-1.9V64.1h1.7l0.2,1.3v0.3h0C209.4,64.5,210.7,63.9,212.1,63.9z"/>
		<path class="st1" d="M227.2,64.1h1.7v10.2c0,1.8-0.4,3.1-1.3,4.1c-0.8,0.9-2.1,1.4-3.7,1.4s-3.1-0.4-4.4-1.1v-1.9h0.1
			c1.2,0.8,2.6,1.1,4.2,1.1c2.1,0,3.2-1.1,3.2-3.4v-1.4H227c-1,1-2.1,1.5-3.4,1.5s-2.5-0.5-3.6-1.4c-1-1-1.6-2.3-1.6-4
			c0-1.7,0.5-3,1.6-4c1-1,2.2-1.4,3.6-1.4s2.5,0.5,3.4,1.5h0.1L227.2,64.1z M227,71.4v-4.3c-1-1-2-1.5-3.1-1.5s-2,0.3-2.6,1
			s-1,1.5-1,2.7c0,1.2,0.3,2.1,1,2.7c0.7,0.6,1.5,1,2.6,1S226,72.5,227,71.4z"/>
		<path class="st1" d="M248.4,74.7l-1.6-3.7h-7.1l-1.6,3.7h-2.1l6.2-14.6h2l6.2,14.6H248.4z M240.5,69.1v0.1h5.6v-0.1l-2.8-6.7h0
			L240.5,69.1z"/>
		<path class="st1" d="M255.9,74.9c-1.2,0-2.1-0.4-2.7-1.2c-0.7-0.8-1-1.8-1-2.9v-6.8h1.9v6.6c0,1.7,0.8,2.5,2.3,2.5
			c1.2,0,2.4-0.7,3.4-2v-7.1h1.9v10.7H260l-0.2-1.3v-0.3h0C258.6,74.3,257.3,74.9,255.9,74.9z"/>
		<path class="st1" d="M270.6,65.7h-3V72c0,0.6,0.2,0.9,0.5,1.1c0.3,0.1,0.6,0.2,1,0.2c0.4,0,0.9-0.1,1.4-0.3h0.1v1.5
			c-0.6,0.3-1.2,0.5-1.9,0.5c-2,0-3.1-0.9-3.1-2.8v-6.5h-2v-0.1l3.9-3.8v2.3h3V65.7z"/>
		<path class="st1" d="M272.4,69.4c0-1.7,0.5-3,1.5-4s2.3-1.5,3.9-1.5c1.6,0,2.9,0.5,3.9,1.5s1.5,2.4,1.5,4s-0.5,3-1.5,4
			c-1,1-2.3,1.5-3.9,1.5c-1.6,0-2.9-0.5-3.9-1.5C272.8,72.4,272.4,71,272.4,69.4z M275.3,72.2c0.7,0.6,1.5,1,2.4,1s1.7-0.3,2.4-1
			c0.7-0.6,1-1.6,1-2.9s-0.3-2.2-1-2.9c-0.7-0.6-1.5-0.9-2.4-0.9s-1.7,0.3-2.4,0.9s-1,1.6-1,2.9S274.6,71.6,275.3,72.2z"/>
		<path class="st1" d="M298.2,63.9c1.1,0,2,0.4,2.6,1.2c0.6,0.8,0.9,1.7,0.9,2.8v6.9h-1.9v-6.5c0-0.9-0.2-1.6-0.5-2
			c-0.3-0.4-0.9-0.6-1.6-0.6c-1.2,0-2.2,0.7-3,2v7.1h-1.9v-6.5c0-0.9-0.2-1.6-0.5-2c-0.3-0.4-0.9-0.6-1.7-0.6c-1.2,0-2.2,0.7-3,2
			v7.1h-1.9V64.1h1.7l0.2,1.3v0.3h0c0.9-1.2,2.1-1.9,3.5-1.9c0.8,0,1.4,0.2,2,0.6s0.9,0.9,1.2,1.5h0.1
			C295.3,64.6,296.5,63.9,298.2,63.9z"/>
		<path class="st1" d="M305.1,64.6c1.2-0.5,2.5-0.8,3.9-0.8s2.4,0.4,3.2,1.2c0.7,0.8,1.1,1.8,1.1,2.9v6.8h-1.7l-0.2-1.3h-0.1
			c-1,1-2.3,1.5-3.9,1.5c-0.9,0-1.8-0.3-2.4-0.9c-0.7-0.6-1-1.4-1-2.3s0.4-1.8,1.2-2.4c0.8-0.6,2-0.9,3.6-0.9h2.5v-0.2
			c0-0.9-0.2-1.6-0.7-2s-1.2-0.6-2.4-0.6c-1.1,0-2.2,0.2-3.1,0.7h-0.1V64.6z M311.4,71.7v-1.8h-2.3c-2.1,0-3.2,0.6-3.2,1.7
			c0,1.1,0.7,1.7,2.2,1.7c0.6,0,1.2-0.2,1.8-0.5C310.5,72.5,311,72.1,311.4,71.7z"/>
		<path class="st1" d="M322.1,65.7h-3V72c0,0.6,0.2,0.9,0.5,1.1c0.3,0.1,0.6,0.2,1,0.2c0.4,0,0.9-0.1,1.4-0.3h0.1v1.5
			c-0.6,0.3-1.2,0.5-1.9,0.5c-2,0-3.1-0.9-3.1-2.8v-6.5h-2v-0.1l3.9-3.8v2.3h3V65.7z"/>
		<path class="st1" d="M326.6,59.8v2h-2v-2H326.6z M324.6,74.7V64.1h1.9v10.7H324.6z"/>
		<path class="st1" d="M329.3,69.4c0-1.7,0.5-3,1.5-4s2.3-1.5,3.9-1.5c1.6,0,2.9,0.5,3.9,1.5s1.5,2.4,1.5,4s-0.5,3-1.5,4
			c-1,1-2.3,1.5-3.9,1.5c-1.6,0-2.9-0.5-3.9-1.5C329.8,72.4,329.3,71,329.3,69.4z M332.2,72.2c0.7,0.6,1.5,1,2.4,1s1.7-0.3,2.4-1
			c0.7-0.6,1-1.6,1-2.9s-0.3-2.2-1-2.9c-0.7-0.6-1.5-0.9-2.4-0.9s-1.7,0.3-2.4,0.9s-1,1.6-1,2.9S331.5,71.6,332.2,72.2z"/>
		<path class="st1" d="M348.4,63.9c1.2,0,2.1,0.4,2.7,1.2s1,1.8,1,2.9v6.8h-1.9v-6.6c0-1.7-0.8-2.6-2.3-2.6c-1.2,0-2.4,0.7-3.4,2
			v7.1h-1.9V64.1h1.7l0.2,1.3v0.3h0C345.7,64.5,347,63.9,348.4,63.9z"/>
	</g>
</g>
<g id="layer4">
	<g id="g682" transform="matrix(0.08579556,0,0,0.08579556,-3.4949679,0.35983287)">
		<path id="path674" class="st1" d="M590.7,448.8c31.7,0,57.5-25.8,57.5-57.5s-25.8-57.5-57.5-57.5s-57.5,25.8-57.5,57.5
			S559,448.8,590.7,448.8z M590.7,362.6c15.8,0,28.7,12.9,28.7,28.7c0,15.8-12.9,28.7-28.7,28.7S562,407.2,562,391.4
			C562,375.5,574.8,362.6,590.7,362.6z"/>
		<path id="path676" class="st1" d="M655.3,271.2c9,0,16.3-7.3,16.3-16.3c0-9-7.3-16.3-16.3-16.3c-9,0-16.3,7.3-16.3,16.3
			C639.1,263.9,646.3,271.2,655.3,271.2z"/>
		<path id="path678" class="st1" d="M396.8,454.1c-9,0-16.3,7.3-16.3,16.3c0,9,7.3,16.3,16.3,16.3s16.3-7.3,16.3-16.3
			C413,461.4,405.7,454.1,396.8,454.1z"/>
		<path id="path680" class="st1" d="M1150.9,219H961.6c-93.6,0-169.8,76.2-169.8,169.8v175h-175c-93.6,0-169.8,76.2-169.8,169.8
			v189.3c0,7.9,6.4,14.4,14.4,14.4h189.3c93.6,0,169.8-76.2,169.8-169.8v-175h175c93.6,0,169.8-76.2,169.8-169.8V233.3
			C1165.3,225.4,1158.9,219,1150.9,219z M791.8,767.4c0,77.8-63.3,141.1-141.1,141.1h-175v-175c0-77.8,63.3-141.1,141.1-141.1h175
			V767.4z M1136.5,422.7c0,77.8-63.3,141.1-141.1,141.1h-175v-175c0-77.8,63.3-141.1,141.1-141.1h175L1136.5,422.7z"/>
	</g>
</g>
<g class="st0">
	<path class="st1" d="M113,29.2c0,0.9,0.4,1.6,1.1,2.2s1.6,1,2.7,1.3s2.2,0.7,3.5,1c1.3,0.4,2.4,0.7,3.5,1c1.1,0.3,2,1,2.7,1.9
		c0.7,1,1.1,2.2,1.1,3.6c0,2-0.8,3.6-2.4,4.8c-1.6,1.2-3.8,1.9-6.7,1.9c-2.9,0-5.6-0.6-8.2-1.8v-3h0.2c2.4,1.3,5.1,2,8.1,2
		c4,0,6-1.3,6-4c0-1.3-1-2.2-2.9-2.9c-0.8-0.2-1.8-0.5-2.8-0.8c-1-0.3-2.1-0.6-3.1-0.9c-1-0.3-2-0.7-2.8-1.2
		c-0.9-0.5-1.6-1.1-2.1-1.9c-0.5-0.8-0.8-1.8-0.8-3c0-2,0.8-3.6,2.3-5c1.6-1.3,3.7-2,6.3-2c2.7,0,5.1,0.4,7.2,1.2v2.9h-0.2
		c-2.1-0.9-4.2-1.3-6.2-1.3c-2,0-3.5,0.3-4.7,1C113.6,27,113,27.9,113,29.2z"/>
	<path class="st1" d="M140.9,31.8h-5v10.3c0,1,0.3,1.6,0.8,1.8c0.4,0.2,1,0.3,1.7,0.3s1.4-0.2,2.3-0.5h0.2v2.5c-1,0.5-2,0.8-3.1,0.8
		c-3.3,0-5-1.5-5-4.5V31.8h-3.2v-0.2l6.4-6.2v3.8h5V31.8z"/>
	<path class="st1" d="M160.2,37.9V39H147c0.2,1.6,0.8,2.8,1.8,3.7c1,0.9,2.5,1.3,4.6,1.3c2,0,3.9-0.6,5.7-1.7h0.2v3
		c-1.9,1.1-4.2,1.6-6.8,1.6c-2.6,0-4.7-0.8-6.2-2.4s-2.3-3.7-2.3-6.4c0-2.7,0.7-4.9,2.1-6.7c1.4-1.8,3.4-2.6,6.1-2.6
		c2.7,0,4.7,0.9,6.1,2.6C159.5,33.2,160.2,35.4,160.2,37.9z M147,36.5h10.1c-0.1-1.6-0.6-2.9-1.7-3.7s-2.1-1.3-3.4-1.3
		c-1.3,0-2.4,0.4-3.4,1.3S147.1,34.8,147,36.5z"/>
	<path class="st1" d="M179.7,37.9V39h-13.2c0.2,1.6,0.8,2.8,1.8,3.7c1,0.9,2.5,1.3,4.6,1.3c2,0,3.9-0.6,5.7-1.7h0.2v3
		c-1.9,1.1-4.2,1.6-6.8,1.6c-2.6,0-4.7-0.8-6.2-2.4s-2.3-3.7-2.3-6.4c0-2.7,0.7-4.9,2.1-6.7c1.4-1.8,3.4-2.6,6.1-2.6
		c2.7,0,4.7,0.9,6.1,2.6C179,33.2,179.7,35.4,179.7,37.9z M166.5,36.5h10.1c-0.1-1.6-0.6-2.9-1.7-3.7s-2.1-1.3-3.4-1.3
		c-1.3,0-2.4,0.4-3.4,1.3S166.6,34.8,166.5,36.5z"/>
	<path class="st1" d="M193.4,28.8h0.3v3h-0.3c-1.3,0-2.6,0.3-3.8,0.8s-2.1,1.3-2.7,2.2v11.8h-3.1V29.2h2.7l0.4,2.2v0.5h0.1
		C188.7,29.8,190.8,28.8,193.4,28.8z"/>
	<path class="st1" d="M225.1,27.7c-2.3-1.6-4.9-2.3-7.8-2.3c-2.8,0-5,0.9-6.6,2.6c-1.6,1.7-2.4,4-2.4,6.7s0.8,5,2.4,6.7
		s3.8,2.6,6.6,2.6c2.8,0,5.4-0.8,7.8-2.3h0.2v3.1c-2.5,1.5-5.2,2.2-8.1,2.2c-3.5,0-6.4-1.1-8.6-3.3c-2.2-2.2-3.4-5.2-3.4-8.9
		c0-3.7,1.1-6.7,3.4-8.9c2.2-2.2,5.1-3.3,8.6-3.3c2.9,0,5.6,0.7,8.1,2.2v3.1H225.1z"/>
	<path class="st1" d="M230.2,30.1c2-0.9,4.1-1.3,6.4-1.3c2.3,0,4,0.7,5.2,2c1.2,1.3,1.8,2.9,1.8,4.8v11h-2.7l-0.4-2.2h-0.1
		c-1.6,1.7-3.8,2.5-6.3,2.5c-1.6,0-2.9-0.5-4-1.4c-1.1-0.9-1.6-2.2-1.6-3.8c0-1.6,0.7-2.9,2-3.9c1.3-1,3.3-1.5,5.9-1.5h4.1V36
		c0-1.5-0.4-2.6-1.1-3.2c-0.7-0.7-2-1-3.8-1c-1.8,0-3.5,0.4-5.1,1.2h-0.2V30.1z M240.4,41.7v-2.9h-3.7c-3.4,0-5.2,0.9-5.2,2.7
		s1.2,2.7,3.6,2.7c1,0,2-0.2,2.9-0.7C239,43,239.8,42.4,240.4,41.7z"/>
	<path class="st1" d="M269.3,28.8c1.9,0,3.3,0.7,4.3,2c1,1.3,1.5,2.9,1.5,4.6v11.2h-3.1V36c0-1.5-0.3-2.6-0.8-3.3
		c-0.5-0.7-1.4-1-2.7-1c-2,0-3.6,1.1-4.9,3.3v11.6h-3.1V36c0-1.5-0.3-2.6-0.8-3.3c-0.5-0.7-1.4-1-2.7-1c-2,0-3.6,1.1-4.9,3.3v11.6
		h-3.1V29.2h2.7l0.4,2.2v0.5h0.1c1.5-2,3.4-3,5.7-3c1.3,0,2.4,0.3,3.3,1c0.9,0.7,1.5,1.5,1.9,2.5h0.1
		C264.4,30,266.5,28.8,269.3,28.8z"/>
	<path class="st1" d="M295,44.5c-1.7,1.6-3.6,2.5-5.8,2.5s-4.1-0.8-5.7-2.5h-0.1v10.1h-3.1V29.2h2.7l0.4,2.2h0.1
		c1.6-1.7,3.5-2.5,5.7-2.5s4.1,0.8,5.8,2.5c1.7,1.6,2.5,3.8,2.5,6.6C297.5,40.7,296.7,42.9,295,44.5z M288.8,31.7
		c-2.1,0-3.9,0.9-5.4,2.6v7.2c1.5,1.7,3.4,2.6,5.4,2.6c1.7,0,3-0.5,4.1-1.6c1-1.1,1.5-2.6,1.5-4.5c0-2-0.5-3.5-1.5-4.5
		C291.8,32.3,290.5,31.7,288.8,31.7z"/>
	<path class="st1" d="M302.2,30.1c2-0.9,4.1-1.3,6.4-1.3c2.3,0,4,0.7,5.2,2c1.2,1.3,1.8,2.9,1.8,4.8v11h-2.7l-0.4-2.2h-0.1
		c-1.6,1.7-3.8,2.5-6.3,2.5c-1.6,0-2.9-0.5-4-1.4c-1.1-0.9-1.6-2.2-1.6-3.8c0-1.6,0.7-2.9,2-3.9c1.3-1,3.3-1.5,5.9-1.5h4.1V36
		c0-1.5-0.4-2.6-1.1-3.2c-0.7-0.7-2-1-3.8-1c-1.8,0-3.5,0.4-5.1,1.2h-0.2V30.1z M312.5,41.7v-2.9h-3.7c-3.4,0-5.2,0.9-5.2,2.7
		s1.2,2.7,3.6,2.7c1,0,2-0.2,2.9-0.7C311,43,311.8,42.4,312.5,41.7z"/>
	<path class="st1" d="M324.2,22.1v3.4h-3.4v-3.4H324.2z M321,46.6V29.2h3.1v17.4H321z"/>
	<path class="st1" d="M343.1,29.2h2.7v16.7c0,2.9-0.7,5.1-2.1,6.6c-1.4,1.6-3.4,2.3-6,2.3s-5-0.6-7.2-1.7V50h0.2
		c1.9,1.3,4.2,1.9,6.8,1.9c3.5,0,5.2-1.9,5.2-5.6v-2.2h-0.1c-1.6,1.7-3.5,2.5-5.6,2.5s-4.1-0.8-5.8-2.3c-1.7-1.6-2.5-3.7-2.5-6.6
		c0-2.8,0.8-5,2.5-6.6c1.7-1.6,3.6-2.3,5.8-2.3s4.1,0.8,5.6,2.5h0.1L343.1,29.2z M342.7,41.2v-7c-1.6-1.7-3.3-2.5-5.1-2.5
		c-1.8,0-3.2,0.5-4.3,1.6c-1.1,1-1.6,2.5-1.6,4.5c0,2,0.5,3.5,1.6,4.5c1.1,1,2.5,1.6,4.3,1.6C339.3,43.8,341,42.9,342.7,41.2z"/>
	<path class="st1" d="M360.7,28.8c1.9,0,3.4,0.6,4.5,1.9c1.1,1.3,1.6,2.9,1.6,4.8v11.1h-3.1V35.9c0-2.8-1.3-4.2-3.8-4.2
		c-2,0-3.9,1.1-5.6,3.3v11.6h-3.1V29.2h2.7l0.4,2.2v0.5h0.1C356.2,29.8,358.3,28.8,360.7,28.8z"/>
</g>
</svg>
