<svg xmlns="http://www.w3.org/2000/svg" version="1.1" xmlns:xlink="http://www.w3.org/1999/xlink" xmlns:svgjs="http://svgjs.com/svgjs" width="1000" height="1000"><rect width="1000" height="1000" rx="200" ry="200" fill="#ffffff"></rect><g transform="matrix(6.25,0,0,6.25,-10.500020027160645,-11.997050285339355)"><svg xmlns="http://www.w3.org/2000/svg" version="1.1" xmlns:xlink="http://www.w3.org/1999/xlink" xmlns:svgjs="http://svgjs.com/svgjs" width="160" height="160"><svg version="1.1" id="svg413" xmlns:svg="http://www.w3.org/2000/svg" xmlns="http://www.w3.org/2000/svg" xmlns:xlink="http://www.w3.org/1999/xlink" x="0px" y="0px" viewBox="0 0 160 160" style="enable-background:new 0 0 160 160;" xml:space="preserve">
<style type="text/css">
	.st0{enable-background:new    ;}
	.st1{fill:#4170BD;}
</style>
<g id="layer1">
</g>
<g id="layer2">
	<g class="st0">
		<path class="st1" d="M23.7,124.5h1.8v8.7h-1.1v-7.5h0l-3.1,7.5h-1.2l-3.1-7.5h0v7.5h-1.1v-8.7h1.8l3,7.4h0L23.7,124.5z"></path>
		<path class="st1" d="M27.8,127.2c0.7-0.3,1.5-0.5,2.3-0.5c0.8,0,1.5,0.2,1.9,0.7c0.4,0.5,0.7,1.1,0.7,1.7v4h-1l-0.1-0.8h0
			c-0.6,0.6-1.4,0.9-2.3,0.9c-0.6,0-1-0.2-1.4-0.5c-0.4-0.3-0.6-0.8-0.6-1.4s0.2-1.1,0.7-1.4s1.2-0.5,2.1-0.5h1.5v-0.1
			c0-0.5-0.1-0.9-0.4-1.2c-0.3-0.2-0.7-0.4-1.4-0.4s-1.3,0.1-1.9,0.4h-0.1V127.2z M31.5,131.4v-1h-1.4c-1.3,0-1.9,0.3-1.9,1
			c0,0.7,0.4,1,1.3,1c0.4,0,0.7-0.1,1.1-0.3C31,131.9,31.3,131.7,31.5,131.4z"></path>
		<path class="st1" d="M38.1,126.7L38.1,126.7l0.1,1.1h-0.1c-0.5,0-0.9,0.1-1.4,0.3c-0.4,0.2-0.8,0.5-1,0.8v4.3h-1.1v-6.3h1l0.1,0.8
			v0.2h0C36.3,127.1,37.1,126.7,38.1,126.7z"></path>
		<path class="st1" d="M42.3,129.4l2.9,3.8h-1.4l-2.2-3h0l-0.9,0.9v2.1h-1.1v-9.1h1.1v5.6h0l2.8-2.8h1.5L42.3,129.4z"></path>
		<path class="st1" d="M51.8,130v0.4H47c0.1,0.6,0.3,1,0.6,1.4c0.4,0.3,0.9,0.5,1.7,0.5c0.7,0,1.4-0.2,2.1-0.6h0.1v1.1
			c-0.7,0.4-1.5,0.6-2.5,0.6c-0.9,0-1.7-0.3-2.3-0.9c-0.6-0.6-0.9-1.4-0.9-2.3c0-1,0.3-1.8,0.8-2.4s1.2-1,2.2-1c1,0,1.7,0.3,2.2,1
			S51.8,129.1,51.8,130z M47,129.5h3.7c0-0.6-0.2-1-0.6-1.4c-0.4-0.3-0.8-0.5-1.2-0.5c-0.5,0-0.9,0.2-1.2,0.5
			C47.2,128.5,47,128.9,47,129.5z"></path>
		<path class="st1" d="M56.6,127.8h-1.8v3.8c0,0.3,0.1,0.6,0.3,0.6c0.2,0.1,0.4,0.1,0.6,0.1c0.2,0,0.5-0.1,0.8-0.2h0.1v0.9
			c-0.3,0.2-0.7,0.3-1.1,0.3c-1.2,0-1.8-0.5-1.8-1.6v-3.9h-1.2v-0.1l2.3-2.3v1.4h1.8V127.8z"></path>
		<path class="st1" d="M59.3,124.3v1.2h-1.2v-1.2H59.3z M58.1,133.2v-6.3h1.1v6.3H58.1z"></path>
		<path class="st1" d="M64.7,126.7c0.7,0,1.2,0.2,1.6,0.7c0.4,0.5,0.6,1,0.6,1.7v4h-1.1v-3.9c0-1-0.5-1.5-1.4-1.5
			c-0.7,0-1.4,0.4-2,1.2v4.2h-1.1v-6.3h1l0.1,0.8v0.2h0C63.1,127.1,63.9,126.7,64.7,126.7z"></path>
		<path class="st1" d="M73.7,126.8h1v6.1c0,1-0.3,1.8-0.8,2.4c-0.5,0.6-1.2,0.8-2.2,0.8s-1.8-0.2-2.6-0.6v-1.1h0.1
			c0.7,0.5,1.5,0.7,2.5,0.7c1.3,0,1.9-0.7,1.9-2v-0.8h0c-0.6,0.6-1.3,0.9-2.1,0.9s-1.5-0.3-2.1-0.9c-0.6-0.6-0.9-1.4-0.9-2.4
			c0-1,0.3-1.8,0.9-2.4c0.6-0.6,1.3-0.9,2.1-0.9s1.5,0.3,2.1,0.9h0L73.7,126.8z M73.6,131.2v-2.6c-0.6-0.6-1.2-0.9-1.9-0.9
			c-0.6,0-1.2,0.2-1.6,0.6c-0.4,0.4-0.6,0.9-0.6,1.6c0,0.7,0.2,1.3,0.6,1.6c0.4,0.4,0.9,0.6,1.6,0.6C72.4,132.2,73,131.9,73.6,131.2
			z"></path>
		<path class="st1" d="M86.3,133.2l-0.9-2.2h-4.2l-0.9,2.2H79l3.7-8.7h1.2l3.7,8.7H86.3z M81.6,129.9L81.6,129.9l3.3,0.1v-0.1
			l-1.6-4h0L81.6,129.9z"></path>
		<path class="st1" d="M90.8,133.3c-0.7,0-1.2-0.2-1.6-0.7s-0.6-1-0.6-1.7v-4h1.1v3.9c0,1,0.5,1.5,1.4,1.5c0.7,0,1.4-0.4,2-1.2v-4.2
			h1.1v6.3h-1l-0.1-0.8v-0.2h0C92.4,133,91.6,133.3,90.8,133.3z"></path>
		<path class="st1" d="M99.5,127.8h-1.8v3.8c0,0.3,0.1,0.6,0.3,0.6c0.2,0.1,0.4,0.1,0.6,0.1c0.2,0,0.5-0.1,0.8-0.2h0.1v0.9
			c-0.3,0.2-0.7,0.3-1.1,0.3c-1.2,0-1.8-0.5-1.8-1.6v-3.9h-1.2v-0.1l2.3-2.3v1.4h1.8V127.8z"></path>
		<path class="st1" d="M100.6,130c0-1,0.3-1.8,0.9-2.4c0.6-0.6,1.4-0.9,2.3-0.9s1.7,0.3,2.3,0.9c0.6,0.6,0.9,1.4,0.9,2.4
			s-0.3,1.8-0.9,2.4c-0.6,0.6-1.4,0.9-2.3,0.9s-1.7-0.3-2.3-0.9C100.9,131.8,100.6,131,100.6,130z M102.3,131.7
			c0.4,0.4,0.9,0.6,1.4,0.6c0.5,0,1-0.2,1.4-0.6c0.4-0.4,0.6-0.9,0.6-1.7s-0.2-1.3-0.6-1.7c-0.4-0.4-0.9-0.6-1.4-0.6
			c-0.5,0-1,0.2-1.4,0.6c-0.4,0.4-0.6,0.9-0.6,1.7S101.9,131.3,102.3,131.7z"></path>
		<path class="st1" d="M116,126.7c0.7,0,1.2,0.2,1.5,0.7c0.4,0.5,0.5,1,0.5,1.7v4.1h-1.1v-3.9c0-0.5-0.1-0.9-0.3-1.2
			c-0.2-0.3-0.5-0.4-1-0.4c-0.7,0-1.3,0.4-1.8,1.2v4.2h-1.1v-3.9c0-0.5-0.1-0.9-0.3-1.2s-0.5-0.4-1-0.4c-0.7,0-1.3,0.4-1.8,1.2v4.2
			h-1.1v-6.3h1l0.1,0.8v0.2h0c0.5-0.7,1.2-1.1,2.1-1.1c0.5,0,0.9,0.1,1.2,0.4c0.3,0.2,0.6,0.5,0.7,0.9h0
			C114.2,127.1,115,126.7,116,126.7z"></path>
		<path class="st1" d="M120.1,127.2c0.7-0.3,1.5-0.5,2.3-0.5s1.5,0.2,1.9,0.7s0.7,1.1,0.7,1.7v4h-1l-0.1-0.8h0
			c-0.6,0.6-1.4,0.9-2.3,0.9c-0.6,0-1-0.2-1.4-0.5c-0.4-0.3-0.6-0.8-0.6-1.4s0.2-1.1,0.7-1.4c0.5-0.4,1.2-0.5,2.1-0.5h1.5v-0.1
			c0-0.5-0.1-0.9-0.4-1.2c-0.3-0.2-0.7-0.4-1.4-0.4c-0.7,0-1.3,0.1-1.9,0.4h-0.1V127.2z M123.8,131.4v-1h-1.4c-1.3,0-1.9,0.3-1.9,1
			c0,0.7,0.4,1,1.3,1c0.4,0,0.7-0.1,1.1-0.3C123.3,131.9,123.6,131.7,123.8,131.4z"></path>
		<path class="st1" d="M130.2,127.8h-1.8v3.8c0,0.3,0.1,0.6,0.3,0.6c0.2,0.1,0.4,0.1,0.6,0.1c0.2,0,0.5-0.1,0.8-0.2h0.1v0.9
			c-0.3,0.2-0.7,0.3-1.1,0.3c-1.2,0-1.8-0.5-1.8-1.6v-3.9h-1.2v-0.1l2.3-2.3v1.4h1.8V127.8z"></path>
		<path class="st1" d="M132.9,124.3v1.2h-1.2v-1.2H132.9z M131.7,133.2v-6.3h1.1v6.3H131.7z"></path>
		<path class="st1" d="M134.5,130c0-1,0.3-1.8,0.9-2.4c0.6-0.6,1.4-0.9,2.3-0.9s1.7,0.3,2.3,0.9c0.6,0.6,0.9,1.4,0.9,2.4
			s-0.3,1.8-0.9,2.4c-0.6,0.6-1.4,0.9-2.3,0.9s-1.7-0.3-2.3-0.9C134.7,131.8,134.5,131,134.5,130z M136.2,131.7
			c0.4,0.4,0.9,0.6,1.4,0.6c0.5,0,1-0.2,1.4-0.6c0.4-0.4,0.6-0.9,0.6-1.7s-0.2-1.3-0.6-1.7c-0.4-0.4-0.9-0.6-1.4-0.6
			c-0.5,0-1,0.2-1.4,0.6c-0.4,0.4-0.6,0.9-0.6,1.7S135.8,131.3,136.2,131.7z"></path>
		<path class="st1" d="M145.9,126.7c0.7,0,1.2,0.2,1.6,0.7c0.4,0.5,0.6,1,0.6,1.7v4h-1.1v-3.9c0-1-0.5-1.5-1.4-1.5
			c-0.7,0-1.4,0.4-2,1.2v4.2h-1.1v-6.3h1l0.1,0.8v0.2h0C144.2,127.1,145,126.7,145.9,126.7z"></path>
	</g>
</g>
<g id="layer4">
	<g id="g682" transform="matrix(0.08579556,0,0,0.08579556,8.2972901,-1.6439446)">
		<path id="path674" class="st1" d="M688.4,565.9c29.6,0,53.7-24.1,53.7-53.7c0-29.6-24.1-53.7-53.7-53.7
			c-29.6,0-53.7,24.1-53.7,53.7C634.7,541.8,658.8,565.9,688.4,565.9z M688.4,485.3c14.8,0,26.9,12.1,26.9,26.9
			s-12.1,26.9-26.9,26.9s-26.9-12.1-26.9-26.9S673.6,485.3,688.4,485.3z"></path>
		<path id="path676" class="st1" d="M748.9,399.8c8.4,0,15.2-6.8,15.2-15.2c0-8.4-6.8-15.2-15.2-15.2c-8.4,0-15.2,6.8-15.2,15.2
			C733.7,393,740.5,399.8,748.9,399.8z"></path>
		<path id="path678" class="st1" d="M507,570.9c-8.4,0-15.2,6.8-15.2,15.2c0,8.4,6.8,15.2,15.2,15.2c8.4,0,15.2-6.8,15.2-15.2
			C522.3,577.7,515.4,570.9,507,570.9z"></path>
		<path id="path680" class="st1" d="M1212.4,351h-177.1c-87.6,0-158.8,71.2-158.8,158.8v163.6H712.9c-87.6,0-158.8,71.2-158.8,158.8
			v177.1c0,7.4,6,13.4,13.4,13.4h177.1c87.6,0,158.8-71.2,158.8-158.8V700.3H1067c87.6,0,158.8-71.2,158.8-158.8V364.4
			C1225.8,357,1219.8,351,1212.4,351z M876.5,863.9c0,72.8-59.2,131.9-131.9,131.9H580.9V832.2c0-72.8,59.2-131.9,131.9-131.9h163.6
			V863.9z M1199,541.5c0,72.8-59.2,131.9-131.9,131.9H903.4V509.8c0-72.8,59.2-131.9,131.9-131.9H1199V541.5z"></path>
	</g>
</g>
<g class="st0">
	<path class="st1" d="M23.4,102c0,0.4,0.2,0.7,0.5,1s0.8,0.5,1.3,0.6c0.5,0.1,1,0.3,1.6,0.5c0.6,0.2,1.1,0.3,1.7,0.5
		c0.5,0.2,0.9,0.5,1.3,0.9c0.3,0.5,0.5,1,0.5,1.7c0,0.9-0.4,1.7-1.1,2.2c-0.8,0.6-1.8,0.9-3.1,0.9s-2.6-0.3-3.8-0.9V108h0.1
		c1.1,0.6,2.4,0.9,3.8,0.9c1.9,0,2.8-0.6,2.8-1.9c0-0.6-0.5-1-1.4-1.3c-0.4-0.1-0.8-0.2-1.3-0.4c-0.5-0.1-1-0.3-1.5-0.4
		c-0.5-0.1-0.9-0.3-1.3-0.5c-0.4-0.2-0.7-0.5-1-0.9c-0.3-0.4-0.4-0.8-0.4-1.4c0-0.9,0.4-1.7,1.1-2.3s1.7-0.9,3-0.9s2.4,0.2,3.4,0.6
		v1.4h-0.1c-1-0.4-2-0.6-2.9-0.6c-0.9,0-1.7,0.2-2.2,0.5C23.6,101,23.4,101.4,23.4,102z"></path>
	<path class="st1" d="M36.4,103.3h-2.3v4.8c0,0.4,0.1,0.7,0.4,0.8c0.2,0.1,0.5,0.1,0.8,0.1c0.3,0,0.7-0.1,1.1-0.3h0.1v1.2
		c-0.4,0.2-0.9,0.4-1.4,0.4c-1.6,0-2.3-0.7-2.3-2.1v-5h-1.5v-0.1l3-2.9v1.8h2.3V103.3z"></path>
	<path class="st1" d="M45.4,106.1v0.5h-6.2c0.1,0.7,0.4,1.3,0.8,1.7s1.2,0.6,2.1,0.6c1,0,1.8-0.3,2.6-0.8h0.1v1.4
		c-0.9,0.5-1.9,0.8-3.2,0.8s-2.2-0.4-2.9-1.1s-1.1-1.7-1.1-3s0.3-2.3,1-3.1c0.7-0.8,1.6-1.2,2.8-1.2c1.2,0,2.2,0.4,2.8,1.2
		C45.1,103.9,45.4,104.9,45.4,106.1z M39.3,105.4H44c0-0.8-0.3-1.3-0.8-1.7c-0.5-0.4-1-0.6-1.6-0.6s-1.1,0.2-1.6,0.6
		C39.6,104.1,39.3,104.7,39.3,105.4z"></path>
	<path class="st1" d="M54.5,106.1v0.5h-6.2c0.1,0.7,0.4,1.3,0.8,1.7s1.2,0.6,2.1,0.6c1,0,1.8-0.3,2.6-0.8h0.1v1.4
		c-0.9,0.5-1.9,0.8-3.2,0.8s-2.2-0.4-2.9-1.1s-1.1-1.7-1.1-3s0.3-2.3,1-3.1c0.7-0.8,1.6-1.2,2.8-1.2c1.2,0,2.2,0.4,2.8,1.2
		C54.2,103.9,54.5,104.9,54.5,106.1z M48.4,105.4h4.7c0-0.8-0.3-1.3-0.8-1.7c-0.5-0.4-1-0.6-1.6-0.6s-1.1,0.2-1.6,0.6
		C48.7,104.1,48.4,104.7,48.4,105.4z"></path>
	<path class="st1" d="M61,101.9h0.1v1.4H61c-0.6,0-1.2,0.1-1.8,0.4s-1,0.6-1.3,1v5.5h-1.5V102h1.3l0.2,1v0.2h0
		C58.8,102.3,59.8,101.9,61,101.9z"></path>
	<path class="st1" d="M75.8,101.3c-1.1-0.7-2.3-1.1-3.6-1.1c-1.3,0-2.4,0.4-3.1,1.2s-1.1,1.9-1.1,3.1c0,1.3,0.4,2.3,1.1,3.1
		s1.8,1.2,3.1,1.2c1.3,0,2.5-0.4,3.6-1.1h0.1v1.4c-1.2,0.7-2.4,1-3.8,1c-1.6,0-3-0.5-4-1.6c-1.1-1-1.6-2.4-1.6-4.2s0.5-3.1,1.6-4.2
		c1.1-1,2.4-1.6,4-1.6c1.4,0,2.6,0.3,3.8,1L75.8,101.3L75.8,101.3z"></path>
	<path class="st1" d="M78.2,102.5c0.9-0.4,1.9-0.6,3-0.6c1.1,0,1.9,0.3,2.4,0.9c0.6,0.6,0.8,1.4,0.8,2.2v5.2h-1.3l-0.2-1h0
		c-0.8,0.8-1.8,1.2-3,1.2c-0.7,0-1.3-0.2-1.8-0.7c-0.5-0.4-0.8-1-0.8-1.8c0-0.8,0.3-1.4,0.9-1.8c0.6-0.5,1.5-0.7,2.7-0.7H83v-0.1
		c0-0.7-0.2-1.2-0.5-1.5s-0.9-0.5-1.8-0.5c-0.9,0-1.7,0.2-2.4,0.5h-0.1V102.5z M83,107.9v-1.3h-1.7c-1.6,0-2.4,0.4-2.4,1.3
		s0.6,1.3,1.7,1.3c0.5,0,0.9-0.1,1.4-0.3C82.3,108.5,82.7,108.2,83,107.9z"></path>
	<path class="st1" d="M96.5,101.9c0.9,0,1.5,0.3,2,0.9c0.5,0.6,0.7,1.3,0.7,2.1v5.2h-1.5v-5c0-0.7-0.1-1.2-0.4-1.5
		c-0.3-0.3-0.7-0.5-1.3-0.5c-0.9,0-1.7,0.5-2.3,1.5v5.4h-1.5v-5c0-0.7-0.1-1.2-0.4-1.5c-0.2-0.3-0.7-0.5-1.3-0.5
		c-0.9,0-1.7,0.5-2.3,1.5v5.4h-1.5V102h1.3l0.2,1v0.2h0c0.7-0.9,1.6-1.4,2.7-1.4c0.6,0,1.1,0.2,1.5,0.5c0.4,0.3,0.7,0.7,0.9,1.2h0
		C94.2,102.4,95.2,101.9,96.5,101.9z"></path>
	<path class="st1" d="M108.5,109.2c-0.8,0.8-1.7,1.2-2.7,1.2c-1,0-1.9-0.4-2.7-1.2h0v4.7h-1.5V102h1.3l0.2,1h0
		c0.8-0.8,1.7-1.2,2.7-1.2c1,0,1.9,0.4,2.7,1.2c0.8,0.8,1.2,1.8,1.2,3.1S109.3,108.4,108.5,109.2z M105.6,103.2
		c-1,0-1.8,0.4-2.5,1.2v3.4c0.7,0.8,1.6,1.2,2.5,1.2c0.8,0,1.4-0.3,1.9-0.8c0.5-0.5,0.7-1.2,0.7-2.1s-0.2-1.6-0.7-2.1
		C107,103.5,106.4,103.2,105.6,103.2z"></path>
	<path class="st1" d="M111.8,102.5c0.9-0.4,1.9-0.6,3-0.6c1.1,0,1.9,0.3,2.4,0.9c0.6,0.6,0.8,1.4,0.8,2.2v5.2h-1.3l-0.2-1h0
		c-0.8,0.8-1.8,1.2-3,1.2c-0.7,0-1.3-0.2-1.8-0.7c-0.5-0.4-0.8-1-0.8-1.8c0-0.8,0.3-1.4,0.9-1.8c0.6-0.5,1.5-0.7,2.7-0.7h1.9v-0.1
		c0-0.7-0.2-1.2-0.5-1.5c-0.3-0.3-0.9-0.5-1.8-0.5c-0.9,0-1.7,0.2-2.4,0.5h-0.1V102.5z M116.6,107.9v-1.3h-1.7
		c-1.6,0-2.4,0.4-2.4,1.3s0.6,1.3,1.7,1.3c0.5,0,0.9-0.1,1.4-0.3C116,108.5,116.3,108.2,116.6,107.9z"></path>
	<path class="st1" d="M122.1,98.7v1.6h-1.6v-1.6H122.1z M120.6,110.2V102h1.5v8.2H120.6z"></path>
	<path class="st1" d="M131,102h1.3v7.8c0,1.3-0.3,2.4-1,3.1c-0.7,0.7-1.6,1.1-2.8,1.1c-1.2,0-2.4-0.3-3.4-0.8v-1.4h0.1
		c0.9,0.6,2,0.9,3.2,0.9c1.6,0,2.4-0.9,2.4-2.6v-1h0c-0.7,0.8-1.6,1.2-2.6,1.2c-1,0-1.9-0.4-2.7-1.1c-0.8-0.7-1.2-1.8-1.2-3.1
		s0.4-2.3,1.2-3.1c0.8-0.7,1.7-1.1,2.7-1.1c1,0,1.9,0.4,2.6,1.2h0L131,102z M130.8,107.7v-3.3c-0.8-0.8-1.6-1.2-2.4-1.2
		c-0.8,0-1.5,0.2-2,0.7s-0.8,1.2-0.8,2.1s0.3,1.6,0.8,2.1s1.2,0.7,2,0.7C129.2,108.8,130,108.5,130.8,107.7z"></path>
	<path class="st1" d="M139.2,101.9c0.9,0,1.6,0.3,2.1,0.9c0.5,0.6,0.8,1.3,0.8,2.2v5.2h-1.5v-5c0-1.3-0.6-2-1.8-2
		c-0.9,0-1.8,0.5-2.6,1.5v5.4h-1.5V102h1.3l0.2,1v0.2h0C137.1,102.3,138.1,101.9,139.2,101.9z"></path>
</g>
</svg></svg></g></svg>