<?xml version="1.0" encoding="utf-8"?>
<!-- Generator: Adobe Illustrator 22.1.0, SVG Export Plug-In . SVG Version: 6.00 Build 0)  -->
<svg version="1.1" id="svg413" xmlns:svg="http://www.w3.org/2000/svg"
	 xmlns="http://www.w3.org/2000/svg" xmlns:xlink="http://www.w3.org/1999/xlink" x="0px" y="0px" viewBox="0 0 1200 728"
	 style="enable-background:new 0 0 1200 728;" xml:space="preserve">
<style type="text/css">
	.st0{enable-background:new    ;}
	.st1{fill:#4170BD;}
</style>
<g id="layer1">
</g>
<g id="layer2">
	<g class="st0">
		<path class="st1" d="M592.8,379.6h5.7v27.9h-3.6v-24.1h-0.1l-9.8,24.1h-3.8l-9.9-24.1h0v24.1h-3.6v-27.9h5.7l9.7,23.9h0.1
			L592.8,379.6z"/>
		<path class="st1" d="M605.8,388.2c2.3-1,4.8-1.5,7.5-1.5s4.7,0.8,6.1,2.3c1.4,1.5,2.1,3.4,2.1,5.6v12.9h-3.2l-0.4-2.6h-0.1
			c-1.9,2-4.4,3-7.4,3c-1.8,0-3.4-0.5-4.6-1.6c-1.3-1.1-1.9-2.6-1.9-4.5c0-1.9,0.8-3.4,2.3-4.6c1.6-1.2,3.8-1.8,6.9-1.8h4.8v-0.3
			c0-1.8-0.4-3-1.3-3.8c-0.9-0.8-2.4-1.2-4.5-1.2c-2.1,0-4.1,0.5-6,1.4h-0.2V388.2z M617.9,401.7v-3.4h-4.4c-4,0-6,1.1-6,3.2
			s1.4,3.2,4.2,3.2c1.2,0,2.3-0.3,3.4-0.9C616.2,403.3,617.1,402.6,617.9,401.7z"/>
		<path class="st1" d="M638.9,386.7h0.3v3.5h-0.3c-1.6,0-3,0.3-4.4,0.9c-1.4,0.6-2.4,1.5-3.2,2.6v13.8h-3.6v-20.4h3.2l0.4,2.6v0.6
			h0.1C633.3,387.9,635.8,386.7,638.9,386.7z"/>
		<path class="st1" d="M652.4,395.3l9.2,12.2h-4.5l-7.2-9.6h-0.1l-3,3v6.7h-3.6v-29.2h3.6v17.9h0.1l8.8-9.1h4.9L652.4,395.3z"/>
		<path class="st1" d="M682.9,397.3v1.3h-15.4c0.2,1.9,0.9,3.3,2.1,4.4c1.2,1,3,1.6,5.3,1.6c2.4,0,4.6-0.7,6.6-2h0.2v3.5
			c-2.2,1.3-4.9,1.9-7.9,1.9c-3,0-5.5-0.9-7.3-2.8c-1.8-1.9-2.7-4.4-2.7-7.5s0.8-5.8,2.4-7.8c1.6-2.1,4-3.1,7.1-3.1s5.5,1,7.1,3.1
			C682.1,391.9,682.9,394.4,682.9,397.3z M667.5,395.6h11.8c-0.1-1.9-0.8-3.4-1.9-4.4c-1.2-1-2.5-1.5-4-1.5c-1.5,0-2.8,0.5-4,1.5
			C668.2,392.3,667.6,393.7,667.5,395.6z"/>
		<path class="st1" d="M698.6,390.2h-5.8v12.1c0,1.1,0.3,1.8,0.9,2.1c0.5,0.2,1.2,0.3,2,0.3s1.7-0.2,2.6-0.6h0.3v3
			c-1.1,0.6-2.3,0.9-3.6,0.9c-3.9,0-5.8-1.8-5.8-5.3v-12.4h-3.8V390l7.4-7.3v4.4h5.8V390.2z"/>
		<path class="st1" d="M707.1,378.9v3.9h-3.9v-3.9H707.1z M703.3,407.5v-20.4h3.6v20.4H703.3z"/>
		<path class="st1" d="M724.5,386.7c2.2,0,4,0.7,5.2,2.2c1.3,1.5,1.9,3.4,1.9,5.6v13H728V395c0-3.3-1.5-4.9-4.4-4.9
			c-2.3,0-4.5,1.3-6.6,3.8v13.6h-3.6v-20.4h3.2l0.4,2.6v0.6h0.1C719.3,387.9,721.8,386.7,724.5,386.7z"/>
		<path class="st1" d="M753.5,387.1h3.2v19.5c0,3.4-0.8,5.9-2.4,7.8c-1.6,1.8-4,2.7-7.1,2.7s-5.9-0.7-8.4-2v-3.6h0.2
			c2.3,1.5,4.9,2.2,8,2.2c4.1,0,6.1-2.2,6.1-6.5v-2.6H753c-1.8,2-4,3-6.6,3s-4.8-0.9-6.8-2.7c-2-1.8-3-4.4-3-7.7s1-5.8,3-7.7
			c2-1.8,4.3-2.7,6.8-2.7s4.8,1,6.6,3h0.1L753.5,387.1z M753.1,401.2V393c-1.9-2-3.9-3-6-3c-2.1,0-3.7,0.6-5,1.8
			c-1.3,1.2-1.9,3-1.9,5.3c0,2.3,0.6,4,1.9,5.3c1.3,1.2,2.9,1.8,5,1.8C749.2,404.2,751.2,403.2,753.1,401.2z"/>
		<path class="st1" d="M794,407.5l-3-7.2h-13.6l-3,7.2h-4l11.8-27.9h3.8l11.8,27.9H794z M778.9,396.8v0.2h10.7v-0.2l-5.3-12.8h-0.1
			L778.9,396.8z"/>
		<path class="st1" d="M808.3,407.9c-2.2,0-4-0.7-5.2-2.2c-1.3-1.5-1.9-3.4-1.9-5.6v-13h3.6v12.6c0,3.3,1.5,4.9,4.4,4.9
			c2.3,0,4.5-1.3,6.6-3.8v-13.6h3.6v20.4h-3.2l-0.4-2.6v-0.6h-0.1C813.5,406.7,811.1,407.9,808.3,407.9z"/>
		<path class="st1" d="M836.5,390.2h-5.8v12.1c0,1.1,0.3,1.8,0.9,2.1c0.5,0.2,1.2,0.3,2,0.3s1.7-0.2,2.6-0.6h0.3v3
			c-1.1,0.6-2.3,0.9-3.6,0.9c-3.9,0-5.8-1.8-5.8-5.3v-12.4h-3.8V390l7.4-7.3v4.4h5.8V390.2z"/>
		<path class="st1" d="M839.8,397.3c0-3.2,0.9-5.7,2.8-7.7c1.9-1.9,4.3-2.9,7.4-2.9c3.1,0,5.6,1,7.4,2.9s2.8,4.5,2.8,7.7
			c0,3.2-0.9,5.7-2.8,7.7c-1.9,1.9-4.4,2.9-7.4,2.9c-3.1,0-5.6-1-7.4-2.9C840.8,403.1,839.8,400.5,839.8,397.3z M845.5,402.8
			c1.3,1.2,2.9,1.8,4.6,1.8s3.3-0.6,4.6-1.8c1.3-1.2,2-3,2-5.5c0-2.4-0.7-4.3-2-5.5c-1.3-1.2-2.9-1.8-4.6-1.8s-3.3,0.6-4.6,1.8
			c-1.3,1.2-2,3-2,5.5C843.5,399.7,844.1,401.6,845.5,402.8z"/>
		<path class="st1" d="M889.3,386.7c2.2,0,3.8,0.8,5,2.3c1.1,1.5,1.7,3.3,1.7,5.4v13.1h-3.6v-12.4c0-1.7-0.3-3-0.9-3.8
			c-0.6-0.8-1.7-1.2-3.1-1.2c-2.3,0-4.2,1.3-5.8,3.8v13.6h-3.6v-12.4c0-1.7-0.3-3-0.9-3.8s-1.7-1.2-3.2-1.2c-2.3,0-4.2,1.3-5.8,3.8
			v13.6h-3.6v-20.4h3.2l0.4,2.6v0.6h0.1c1.7-2.4,3.9-3.6,6.7-3.6c1.5,0,2.8,0.4,3.8,1.2c1.1,0.8,1.8,1.7,2.3,2.9h0.1
			C883.7,388.1,886.1,386.7,889.3,386.7z"/>
		<path class="st1" d="M902.5,388.2c2.3-1,4.8-1.5,7.5-1.5c2.7,0,4.7,0.8,6.1,2.3c1.4,1.5,2.1,3.4,2.1,5.6v12.9H915l-0.4-2.6h-0.1
			c-1.9,2-4.4,3-7.4,3c-1.8,0-3.4-0.5-4.6-1.6c-1.3-1.1-1.9-2.6-1.9-4.5c0-1.9,0.8-3.4,2.3-4.6c1.6-1.2,3.8-1.8,6.9-1.8h4.8v-0.3
			c0-1.8-0.4-3-1.3-3.8s-2.4-1.2-4.5-1.2c-2.1,0-4.1,0.5-6,1.4h-0.2V388.2z M914.5,401.7v-3.4h-4.4c-4,0-6,1.1-6,3.2
			s1.4,3.2,4.2,3.2c1.2,0,2.3-0.3,3.4-0.9S913.8,402.6,914.5,401.7z"/>
		<path class="st1" d="M935.1,390.2h-5.8v12.1c0,1.1,0.3,1.8,0.9,2.1c0.5,0.2,1.2,0.3,2,0.3s1.7-0.2,2.6-0.6h0.3v3
			c-1.1,0.6-2.3,0.9-3.6,0.9c-3.9,0-5.8-1.8-5.8-5.3v-12.4h-3.8V390l7.4-7.3v4.4h5.8V390.2z"/>
		<path class="st1" d="M943.7,378.9v3.9h-3.9v-3.9H943.7z M939.9,407.5v-20.4h3.6v20.4H939.9z"/>
		<path class="st1" d="M948.7,397.3c0-3.2,0.9-5.7,2.8-7.7c1.9-1.9,4.3-2.9,7.4-2.9s5.6,1,7.4,2.9c1.9,1.9,2.8,4.5,2.8,7.7
			c0,3.2-0.9,5.7-2.8,7.7c-1.9,1.9-4.4,2.9-7.4,2.9s-5.6-1-7.4-2.9C949.7,403.1,948.7,400.5,948.7,397.3z M954.4,402.8
			c1.3,1.2,2.9,1.8,4.6,1.8c1.8,0,3.3-0.6,4.6-1.8c1.3-1.2,2-3,2-5.5c0-2.4-0.7-4.3-2-5.5c-1.3-1.2-2.9-1.8-4.6-1.8
			c-1.8,0-3.3,0.6-4.6,1.8c-1.3,1.2-2,3-2,5.5C952.4,399.7,953,401.6,954.4,402.8z"/>
		<path class="st1" d="M985.4,386.7c2.2,0,4,0.7,5.2,2.2c1.3,1.5,1.9,3.4,1.9,5.6v13h-3.6V395c0-3.3-1.5-4.9-4.4-4.9
			c-2.3,0-4.5,1.3-6.6,3.8v13.6h-3.6v-20.4h3.2l0.4,2.6v0.6h0.1C980.2,387.9,982.6,386.7,985.4,386.7z"/>
	</g>
</g>
<g id="layer4">
	<g id="g682" transform="matrix(0.48429881,0,0,0.48429881,-13.113813,23.66351)">
		<path id="path674" class="st1" d="M455.8,553.6c33.4,0,60.5-27.1,60.5-60.5s-27.1-60.5-60.5-60.5s-60.5,27.1-60.5,60.5
			S422.4,553.6,455.8,553.6z M455.8,462.9c16.7,0,30.2,13.6,30.2,30.2s-13.6,30.2-30.2,30.2s-30.2-13.6-30.2-30.2
			S439.1,462.9,455.8,462.9z"/>
		<path id="path676" class="st1" d="M523.8,366.6c9.5,0,17.1-7.7,17.1-17.1c0-9.5-7.7-17.1-17.1-17.1c-9.5,0-17.1,7.7-17.1,17.1
			C506.7,359,514.3,366.6,523.8,366.6z"/>
		<path id="path678" class="st1" d="M251.7,559.2c-9.5,0-17.1,7.7-17.1,17.1c0,9.5,7.7,17.1,17.1,17.1s17.1-7.7,17.1-17.1
			C268.8,566.8,261.1,559.2,251.7,559.2z"/>
		<path id="path680" class="st1" d="M1045.4,311.7H846.1c-98.5,0-178.7,80.2-178.7,178.7v184.1H483.3
			c-98.5,0-178.7,80.2-178.7,178.7v199.3c0,8.4,6.8,15.1,15.1,15.1H519c98.5,0,178.7-80.2,178.7-178.7V704.8h184.1
			c98.5,0,178.7-80.2,178.7-178.7V326.9C1060.5,318.5,1053.7,311.7,1045.4,311.7L1045.4,311.7z M667.4,888.9
			c0,81.9-66.6,148.5-148.5,148.5H334.8V853.3c0-81.9,66.6-148.5,148.5-148.5h184.1V888.9z M1030.3,526.1
			c0,81.9-66.6,148.5-148.5,148.5H697.7V490.4c0-81.9,66.6-148.5,148.5-148.5h184.1L1030.3,526.1z"/>
	</g>
</g>
<g class="st0">
	<path class="st1" d="M512.5,309c0,2.1,0.9,3.8,2.6,5.1c1.7,1.3,3.9,2.4,6.3,3.1c2.5,0.7,5.2,1.5,8.2,2.4c3,0.9,5.8,1.7,8.4,2.5
		c2.6,0.8,4.7,2.3,6.4,4.6c1.7,2.3,2.5,5.2,2.5,8.6c0,4.7-1.9,8.5-5.7,11.4c-3.8,3-9.1,4.4-16,4.4s-13.3-1.5-19.5-4.4v-7.2h0.4
		c5.6,3.1,12,4.7,19.2,4.7c9.5,0,14.2-3.1,14.2-9.4c0-3.1-2.3-5.3-6.9-6.8c-2-0.6-4.2-1.2-6.6-2c-2.4-0.7-4.9-1.4-7.4-2.2
		c-2.5-0.7-4.7-1.7-6.7-2.8c-2-1.1-3.7-2.7-5-4.6c-1.3-2-1.9-4.3-1.9-7c0-4.7,1.9-8.7,5.6-11.9c3.7-3.2,8.7-4.8,15-4.8
		c6.3,0,12,1,17.1,2.9v6.9h-0.6c-5.1-2.1-10-3.1-14.7-3.1c-4.7,0-8.4,0.8-11.1,2.5C513.9,303.7,512.5,306,512.5,309z"/>
	<path class="st1" d="M578.7,315.3H567v24.5c0,2.3,0.6,3.7,1.9,4.2c1,0.4,2.4,0.6,4,0.6c1.6,0,3.4-0.4,5.4-1.3h0.6v6
		c-2.3,1.2-4.7,1.8-7.3,1.8c-7.9,0-11.9-3.6-11.9-10.7v-25.2h-7.7v-0.5L567,300v8.9h11.8V315.3z"/>
	<path class="st1" d="M624.5,329.7v2.6h-31.3c0.4,3.8,1.8,6.7,4.2,8.8s6,3.2,10.8,3.2c4.8,0,9.3-1.4,13.4-4.1h0.4v7.1
		c-4.5,2.5-9.9,3.8-16,3.8c-6.1,0-11.1-1.9-14.8-5.6c-3.7-3.8-5.6-8.8-5.6-15.3s1.7-11.7,5-15.9c3.3-4.2,8.1-6.3,14.5-6.3
		c6.3,0,11.1,2.1,14.5,6.3C622.8,318.6,624.5,323.6,624.5,329.7z M593.1,326.2h24c-0.2-3.9-1.5-6.8-3.9-8.8c-2.4-2-5.1-3-8.1-3
		c-3,0-5.7,1-8,3C594.6,319.4,593.3,322.3,593.1,326.2z"/>
	<path class="st1" d="M670.7,329.7v2.6h-31.3c0.4,3.8,1.8,6.7,4.2,8.8s6,3.2,10.8,3.2c4.8,0,9.3-1.4,13.4-4.1h0.4v7.1
		c-4.5,2.5-9.9,3.8-16,3.8c-6.1,0-11.1-1.9-14.8-5.6c-3.7-3.8-5.6-8.8-5.6-15.3s1.7-11.7,5-15.9c3.3-4.2,8.1-6.3,14.5-6.3
		c6.3,0,11.1,2.1,14.5,6.3C669.1,318.6,670.7,323.6,670.7,329.7z M639.4,326.2h24c-0.2-3.9-1.5-6.8-3.9-8.8c-2.4-2-5.1-3-8.1-3
		c-3,0-5.7,1-8,3C640.9,319.4,639.6,322.3,639.4,326.2z"/>
	<path class="st1" d="M703.5,308.1h0.6v7.1h-0.6c-3.2,0-6.2,0.6-8.9,1.9c-2.8,1.2-4.9,3-6.5,5.2v28.1h-7.4V309h6.5l0.9,5.2v1.2h0.2
		C692.1,310.5,697.2,308.1,703.5,308.1z"/>
	<path class="st1" d="M778.6,305.5c-5.6-3.7-11.7-5.5-18.4-5.5c-6.7,0-12,2.1-15.8,6.2c-3.8,4.1-5.7,9.4-5.7,15.9s1.9,11.8,5.7,15.9
		c3.8,4.1,9,6.2,15.8,6.2c6.7,0,12.9-1.8,18.4-5.5h0.4v7.3c-5.8,3.5-12.3,5.3-19.2,5.3c-8.3,0-15.1-2.6-20.4-7.9
		c-5.3-5.3-8-12.4-8-21.2c0-8.9,2.7-16,8-21.2c5.3-5.3,12.1-7.9,20.4-7.9c7,0,13.4,1.8,19.2,5.3v7.3H778.6z"/>
	<path class="st1" d="M790.6,311.2c4.7-2.1,9.8-3.1,15.1-3.1c5.4,0,9.5,1.6,12.4,4.7c2.9,3.1,4.3,6.9,4.3,11.3v26.2h-6.5l-0.9-5.2
		h-0.2c-3.9,4-8.9,6-15,6c-3.7,0-6.8-1.1-9.4-3.3c-2.6-2.2-3.9-5.2-3.9-9.1c0-3.8,1.6-7,4.8-9.3c3.2-2.4,7.8-3.6,13.9-3.6h9.8v-0.6
		c0-3.6-0.9-6.1-2.6-7.7c-1.8-1.6-4.8-2.4-9.1-2.4s-8.4,0.9-12.2,2.8h-0.5V311.2z M815,338.6v-6.8h-8.8c-8.2,0-12.3,2.2-12.3,6.5
		s2.9,6.5,8.6,6.5c2.4,0,4.7-0.6,6.9-1.7C811.6,341.8,813.5,340.3,815,338.6z"/>
	<path class="st1" d="M883.4,308.1c4.4,0,7.8,1.6,10.1,4.7c2.3,3.1,3.5,6.8,3.5,10.9v26.6h-7.4v-25.2c0-3.5-0.6-6.1-1.9-7.8
		c-1.3-1.7-3.4-2.5-6.4-2.5c-4.7,0-8.6,2.6-11.7,7.8v27.6h-7.4v-25.2c0-3.5-0.6-6.1-1.9-7.8c-1.2-1.7-3.4-2.5-6.4-2.5
		c-4.7,0-8.6,2.6-11.7,7.8v27.6h-7.4V309h6.5l0.9,5.2v1.2h0.2c3.5-4.8,8-7.2,13.6-7.2c3,0,5.6,0.8,7.8,2.4c2.1,1.6,3.7,3.5,4.6,5.8
		h0.2C872,310.9,876.9,308.1,883.4,308.1z"/>
	<path class="st1" d="M944.5,345.3c-3.9,3.9-8.5,5.8-13.8,5.8c-5.3,0-9.8-2-13.6-6h-0.2V369h-7.4V309h6.5l0.9,5.2h0.2
		c3.8-4,8.4-6,13.6-6c5.2,0,9.8,1.9,13.8,5.8c3.9,3.9,5.9,9.1,5.9,15.7C950.4,336.2,948.5,341.4,944.5,345.3z M929.7,315
		c-4.9,0-9.1,2-12.8,6.1v17c3.7,4.1,8,6.1,12.8,6.1c4,0,7.2-1.3,9.7-3.8c2.4-2.5,3.7-6.1,3.7-10.8c0-4.7-1.2-8.3-3.7-10.8
		C936.9,316.3,933.7,315,929.7,315z"/>
	<path class="st1" d="M961.5,311.2c4.7-2.1,9.8-3.1,15.1-3.1c5.4,0,9.5,1.6,12.4,4.7c2.9,3.1,4.3,6.9,4.3,11.3v26.2h-6.5l-0.9-5.2
		h-0.2c-3.9,4-8.9,6-15,6c-3.7,0-6.8-1.1-9.4-3.3c-2.6-2.2-3.9-5.2-3.9-9.1c0-3.8,1.6-7,4.8-9.3c3.2-2.4,7.8-3.6,13.9-3.6h9.8v-0.6
		c0-3.6-0.9-6.1-2.6-7.7c-1.8-1.6-4.8-2.4-9.1-2.4s-8.4,0.9-12.2,2.8h-0.5V311.2z M985.9,338.6v-6.8h-8.8c-8.2,0-12.3,2.2-12.3,6.5
		s2.9,6.5,8.6,6.5c2.4,0,4.7-0.6,6.9-1.7C982.5,341.8,984.4,340.3,985.9,338.6z"/>
	<path class="st1" d="M1013.8,292.2v8h-8v-8H1013.8z M1006.1,350.4V309h7.4v41.4H1006.1z"/>
	<path class="st1" d="M1058.6,309h6.5v39.6c0,6.8-1.7,12.1-5,15.8c-3.3,3.7-8.1,5.5-14.3,5.5c-6.3,0-11.9-1.4-17.1-4.1v-7.3h0.4
		c4.6,3,10,4.5,16.2,4.5c8.3,0,12.4-4.4,12.4-13.2v-5.3h-0.2c-3.7,4-8.2,6-13.4,6s-9.8-1.9-13.8-5.6c-4-3.7-6-8.9-6-15.5
		c0-6.7,2-11.8,6-15.5c4-3.7,8.6-5.6,13.8-5.6s9.7,2,13.4,6h0.2L1058.6,309z M1057.7,337.6v-16.7c-3.9-4-7.9-6-12.1-6
		c-4.2,0-7.6,1.2-10.1,3.7c-2.6,2.5-3.9,6-3.9,10.7c0,4.7,1.3,8.2,3.9,10.7c2.6,2.5,6,3.7,10.1,3.7
		C1049.7,343.6,1053.8,341.6,1057.7,337.6z"/>
	<path class="st1" d="M1100.4,308.1c4.5,0,8,1.5,10.6,4.5c2.6,3,3.9,6.8,3.9,11.4v26.3h-7.4v-25.5c0-6.6-3-9.9-8.9-9.9
		c-4.7,0-9.1,2.6-13.3,7.8v27.6h-7.4V309h6.5l0.9,5.2v1.2h0.2C1089.8,310.5,1094.8,308.1,1100.4,308.1z"/>
</g>
</svg>
